<?xml version="1.0" standalone="no"?>
<svg viewBox="0 0 200 200" xmlns="http://www.w3.org/2000/svg">
  <path fill="#F3FBFD" d="M47.1,-80.3C61.2,-73.4,73.1,-61.2,80.1,-46.9C87.2,-32.7,89.5,-16.3,88.4,-0.7C87.2,15,82.6,30,74.8,42.9C66.9,55.8,55.7,66.5,42.7,75C29.7,83.4,14.9,89.6,0.1,89.5C-14.7,89.3,-29.4,82.9,-42.6,74.5C-55.8,66.2,-67.4,55.9,-75.3,43.2C-83.2,30.4,-87.4,15.2,-86.9,0.3C-86.5,-14.7,-81.4,-29.4,-74.5,-43.8C-67.5,-58.1,-58.7,-72.2,-45.9,-79.9C-33.2,-87.7,-16.6,-89.1,-0.1,-89C16.5,-88.8,32.9,-87.2,47.1,-80.3Z" transform="translate(100 100)" />
</svg>
